<?xml version="1.0" encoding="UTF-8"?>
<svg id="Vrstva_1" data-name="Vrstva 1" xmlns="http://www.w3.org/2000/svg" xmlns:xlink="http://www.w3.org/1999/xlink" viewBox="0 0 283.46 283.46">
  <defs>
    <style>
      .cls-1 {
        fill: none;
      }

      .cls-2 {
        fill: #13a538;
      }

      .cls-3 {
        clip-path: url(#clippath);
      }
    </style>
    <clipPath id="clippath">
      <rect class="cls-1" x="2.92" y="24.08" width="277.63" height="235.31"/>
    </clipPath>
  </defs>
  <g class="cls-3">
    <path class="cls-2" d="M141.99,173.32c-6.67.61-7.29,7.4-10.22,12.09-7.21,11.61-20.19,17.74-33.82,16.6-5.42-.46-10.73-4.28-15.72-1.09-5.34,3.41-4.65,11.55.95,14.31,15.19,7.47,37.87,2.38,50.8-7.78,6.26-4.93,15.42-16.38,16.92-24.28,1.04-5.47-3.4-10.35-8.91-9.85M68.89,147.31c-9.94.4-23.74,9.09-24.99,19.61-1.02,8.48,8.91,13.07,14.37,6.64,2.58-3.04,2.07-5.88,6.34-8.22,6.45-3.54,11.25,1.64,16.34-1.62,4.7-3.01,5.25-9.55,1.02-13.24-2.79-2.43-9.47-3.3-13.08-3.16M129.91,118.5c-9.51.58-18.33,6.4-22.66,14.82-1.7,3.3-2.7,6.55-.83,10.04,2.22,4.13,7.42,5.35,11.49,3.11,3.98-2.19,3.55-8.22,9.47-10.67,5.63-2.33,7.5.83,12.01.24,6.26-.81,9.2-8.5,5.15-13.45-2.96-3.62-10.23-4.35-14.64-4.09M137.29,67.74c.73.59,1.62,1.87,2.1,2.7,4.37,7.56,8.4,17.76,12.24,25.87,7.41,15.67,15.7,32.03,22.4,47.92,15.72,37.3,6.84,79.91-23.28,106.93-5.28,4.74-8.27,6.19-15.38,7.23-39.58,5.81-78.08-14.15-96.62-49.2-12.53-23.68-22.27-49.64-34.59-73.53-4.54-8.2,4.52-14.7,10.13-19.42,26.75-22.43,77.4-46.54,112.17-50.15,3.87-.4,7.62-.95,10.84,1.65"/>
    <path class="cls-2" d="M225.93,79.14c-5.72,1.06-7.86,8.44-4.71,12.92,8.32,11.8,32.05,11.66,40.54,0,3.24-4.45,1.02-11.85-4.69-12.91-7.2-1.33-8.66,5.41-15.42,5.53-7.01.12-8.36-6.89-15.72-5.53M130.29,42.67c.93-8.3,10.47-10,17.28-11.84,33.96-9.14,84.32-9.06,118.15.63,5.74,1.64,14.14,3.44,14.82,10.57l-.02,85.82c-2.82,34.31-23.89,64.83-55.33,78.8-4.74,2.1-14.5,5.9-19.49,5.94-1.28.01-10.86-2.04-11-2.69.34-2.85,1.31-5.58,1.8-8.4,2.7-15.46,2.16-31.29-1.34-46.54,11.23-3.82,23.66-1.03,32.85,6.21,2.02,1.59,3.7,4.19,6.53,4.62,9.08,1.37,13.29-8.09,7.12-14.55-9.12-9.56-25.06-15.05-38.13-14.56-4.79.18-9.36,1.55-14.04,2.14l-17.38-37.28c.21-.3.4-.4.77-.46,1.58-.26,3.81-.09,5.51-.38,5.67-.96,16.15-6.14,16.93-12.5.5-4.13-2.76-8.71-6.93-9.13-6.65-.67-8,5.18-14.31,5.57-5.61.34-7.93-3.78-12.52-5.77-3.76-7.5-6.88-15.54-10.72-22.97-1.22-2.38-1.96-4.4-4.55-5.67-3.1-1.53-9.79-1.24-13.38-1.2-.5,0-2.62.67-2.62-.44,0-1.82-.19-4.15,0-5.89"/>
  </g>
</svg>