<?xml version="1.0" encoding="UTF-8"?>
<svg id="Vrstva_1" data-name="Vrstva 1" xmlns="http://www.w3.org/2000/svg" xmlns:xlink="http://www.w3.org/1999/xlink" viewBox="0 0 283.46 283.46">
  <defs>
    <style>
      .cls-1 {
        fill: none;
      }

      .cls-2 {
        fill: #13a538;
      }

      .cls-3 {
        clip-path: url(#clippath);
      }
    </style>
    <clipPath id="clippath">
      <rect class="cls-1" x="2.76" y="2.85" width="277.95" height="277.77"/>
    </clipPath>
  </defs>
  <g class="cls-3">
    <path class="cls-2" d="M165.82,232.73c19.99,18.45,53.25,7.49,57.75-19.32,5.19-30.83-29.12-52.5-54.57-34.11-17.48,12.64-19.11,38.74-3.18,53.43M118.47,182.44c-19.82-19.21-53.37-8.67-58.4,18.41-5.15,27.73,23.35,49.73,48.97,37.81,21.65-10.09,26.64-39.55,9.43-56.23M139.58,130.33c-13.95,2.31-11.39,25.11,4.24,22.85,14.3-2.07,11.7-25.49-4.24-22.85M243.67,140.98c16.75-17.41,11.38-46.35-10.81-56.03-28.68-12.52-57.77,16.08-46.02,45.09,9.21,22.72,39.76,28.69,56.83,10.95M89.02,141.62c17.45-16.86,12.05-47.1-10.22-56.67-27.95-12.01-56.64,14.46-46.72,43.31,8.16,23.73,38.88,30.8,56.94,13.36M167.99,38.05c-17.86-20.48-51.45-13.51-59.32,12.4-9.18,30.23,23.31,56.02,50.72,40.18,18.67-10.78,22.78-36.31,8.6-52.58M280.7,280.61h-146.49c-97.87-5.77-160.56-108.99-117.79-198.72C56.64-2.49,168.31-24.04,236.85,40.34c63.26,59.44,56.98,160.24-11.66,212.49-1.72,1.31-3.85,2.42-5.47,3.81-.22.19-.58-.01-.39.71h61.38v23.25Z"/>
  </g>
</svg>