<?xml version="1.0" encoding="UTF-8"?>
<svg id="Vrstva_1" data-name="Vrstva 1" xmlns="http://www.w3.org/2000/svg" xmlns:xlink="http://www.w3.org/1999/xlink" viewBox="0 0 283.46 283.46">
  <defs>
    <style>
      .cls-1 {
        fill: none;
      }

      .cls-2 {
        fill: #13a538;
      }

      .cls-3 {
        clip-path: url(#clippath);
      }
    </style>
    <clipPath id="clippath">
      <rect class="cls-1" x="4.89" y="2.01" width="273.69" height="279.44"/>
    </clipPath>
  </defs>
  <g class="cls-3">
    <path class="cls-2" d="M260.02,85.74c-.86-6.85-5.71-10.91-12.67-9.69l-121.45,37.85c-16.69,6.45-14.64,19.84-14.92,35.09-.44,23.38-.14,46.57.68,69.88,1.42,39.59-28.41,64.7-67.09,62.45-33.55-1.95-52.32-31.36-29.95-59.78,14.86-18.89,35.71-27.6,59.76-26,4.68.31,12.13,2.87,16.21,2.29.62-.09,1.21-.48,1.79-.7.17-2.29.62-4.76.74-7.04,1.69-36.5-1.32-74.31-.02-110.96,1.13-17.55,9.95-29.52,26.32-35.61,42.08-12.47,83.73-26.65,125.95-38.64,15.81-4.49,30.36-6.2,33.15,14.34l.05,184.1c-2.32,36.64-36.52,57.36-71.04,53.47-34.84-3.93-50.54-37.16-25.03-63.76,16.97-17.68,38.31-24.55,62.7-20.61,4.94.8,9.87,3.36,14.82,1.57v-88.25Z"/>
  </g>
</svg>