<?xml version="1.0" encoding="UTF-8"?>
<svg id="Vrstva_1" data-name="Vrstva 1" xmlns="http://www.w3.org/2000/svg" viewBox="0 0 283.46 283.46">
  <defs>
    <style>
      .cls-1 {
        fill: #13a538;
      }
    </style>
  </defs>
  <path class="cls-1" d="M186.83,91.7l80.88,7.58c12.06,2.32,16.4,15.86,8.35,24.99l-61.15,53.92,18.05,80.44c.2,8.66-6.41,16.07-15.32,15.74-4.72-.18-9.32-3.43-13.32-5.73-21.09-12.15-41.5-25.56-62.72-37.48l-70.51,41.97c-10.15,4.4-20.64-3.39-20.63-14.12l18.1-80.82L7.41,124.27c-8.2-9.34-3.53-22.88,8.72-25.05l80.51-7.52,32.47-75.45c5.89-9.6,19.45-9.53,25.26,0l32.47,75.45Z"/>
</svg>