<?xml version="1.0" encoding="UTF-8"?>
<svg id="Vrstva_1" data-name="Vrstva 1" xmlns="http://www.w3.org/2000/svg" xmlns:xlink="http://www.w3.org/1999/xlink" viewBox="0 0 283.46 283.46">
  <defs>
    <style>
      .cls-1 {
        fill: none;
      }

      .cls-2 {
        fill: #13a538;
      }

      .cls-3 {
        clip-path: url(#clippath);
      }
    </style>
    <clipPath id="clippath">
      <rect class="cls-1" x="1.94" y="14.8" width="279.59" height="253.87"/>
    </clipPath>
  </defs>
  <g class="cls-3">
    <path class="cls-2" d="M182.46,120.1l-25.38,25.58,36.63,37c6,6.27,7.25,14.47,2.24,21.81-19.53,18.51-38.03,41.06-58.18,58.69-17.88,15.64-38.68-6.41-23.53-23.11l44.9-44.96-39.41-40.36c-3.47-5.65-3.5-12.1,0-17.74l69.41-69.92c7.67-5.55,18.72-3.55,23.76,4.46.68,1.08,2.41,4.8,2.41,5.91v34.94l.62.62h50.32c7.44,0,14.5,7.57,15.17,14.76.98,10.49-6.88,17.46-16.82,18.11-22.37,1.46-46.89-.7-69.36-.55-6.38-.98-12.8-8.73-12.8-15.06v-10.19Z"/>
    <path class="cls-2" d="M102.19,154.62c2.64,11.04,11.99,17.57,19.37,25.37v.82l-84.45,84.43c-14.43,10.72-33.36-5.8-24-21.5,28.63-30.19,58.82-59.04,88.04-88.72l1.04-.41Z"/>
    <path class="cls-2" d="M184.96,51.05c-10.25,4.74-16.87,14.72-25.22,22.02-.66.11-9.23-6.9-10.83-7.81-.45-.26-.83-.62-1.37-.29l-35.14,35.18c-14.85,13.37-36.08-4.41-24.93-21.19,15.4-14.61,30.15-32.85,46.12-46.63,6.89-5.93,13.5-7.13,21.56-2.41,8.48,4.96,20.6,13.66,28.54,19.71.3.22,1.43,1.2,1.28,1.42"/>
    <path class="cls-2" d="M220.63,14.99c31.72-3.6,37.49,43.16,7.75,48.51-33.7,6.06-40.25-44.83-7.75-48.51"/>
    <path class="cls-2" d="M26.42,104.83c13-1.47,28.19.8,41.42-.07,10.74.67,11.39,15.35.42,16.53-13.12,1.41-28.54-.91-41.9,0-10.58-1.14-10.9-15.23.07-16.46"/>
    <path class="cls-2" d="M24.73,39.51l44.79-.08c8.51,2.2,9,13.61.42,16.17H24.65c-8.4-2.34-8.44-13.9.08-16.1"/>
    <path class="cls-2" d="M8.09,72.37h45.55c8.61,2.71,8.05,14.25-.77,16.09l-44.37-.06c-8.47-2.2-8.89-13.36-.42-16.03"/>
  </g>
</svg>