<?xml version="1.0" encoding="UTF-8"?>
<svg id="Vrstva_1" data-name="Vrstva 1" xmlns="http://www.w3.org/2000/svg" xmlns:xlink="http://www.w3.org/1999/xlink" viewBox="0 0 283.46 283.46">
  <defs>
    <style>
      .cls-1 {
        fill: none;
      }

      .cls-2 {
        clip-path: url(#clippath-1);
      }

      .cls-3 {
        fill: #13a538;
      }

      .cls-4 {
        clip-path: url(#clippath-2);
      }

      .cls-5 {
        clip-path: url(#clippath);
      }
    </style>
    <clipPath id="clippath">
      <rect class="cls-1" x="3.48" y="3.47" width="276.51" height="276.53"/>
    </clipPath>
    <clipPath id="clippath-1">
      <rect class="cls-1" x="3.48" y="3.47" width="276.51" height="276.53"/>
    </clipPath>
    <clipPath id="clippath-2">
      <rect class="cls-1" x="3.48" y="3.47" width="276.51" height="276.53"/>
    </clipPath>
  </defs>
  <g class="cls-5">
    <path class="cls-3" d="M247.07,117.47h-6.79c-2.81,0-10.42-2.45-13.12-3.76-4.21-2.03-7.62-5.25-11.16-8.19-1.13,0-1.75,1.85-2.45,2.5-11.42,10.56-27.8,12.72-41.01,3.95-2.34-1.55-4.07-3.6-6.32-5.21-2.57,2-4.83,4.26-7.65,5.95-12.46,7.46-26.84,5.85-38.02-3.07-.79-.63-2.49-2.88-3.31-2.88-2.26,1.61-3.98,3.66-6.32,5.21-13.48,8.94-29.63,6.52-41.22-4.15-.81-.74-1.06-2.12-2.24-2.29-.83,0-2.87,2.62-3.71,3.29-7.82,6.29-18.1,9.72-28.18,8.24v89.7h16.05v-10.9c0-3.66,2.54-10.86,4.45-14.06,2.48-4.15,2.6-1.39,5.23.68,14.9,11.73,36.25,10.46,49.36-3.27,6.02,7.82,6.66,18.02,6.38,27.56h48.55v-12.14c0-.77.7-3.43.94-4.4.44-1.8,3.41-10.25,5.06-10.6,8.83,7.81,18.06,11.49,30.02,10.71,8.88-.58,16.37-5.13,22.98-10.71,1.39.3,4.3,7.7,4.75,9.27.36,1.25,1.26,4.66,1.26,5.73v11.52l.62.62h15.22l.62-.62v-88.67ZM279.99,68.5v18.31c0,.97-1.78,6.38-2.27,7.6-2.94,7.33-8.38,12.89-14.6,17.5v151.63h16.87v16.46h-49.38v-48.76l-.62-.62H52.23l-.61.62v48.76H3.48v-16.46h15.64V110.47c-5.8-3.36-10.87-9.85-13.36-16.06-.49-1.22-2.27-6.63-2.27-7.6v-18.31h276.51Z"/>
  </g>
  <rect class="cls-3" x="68.07" y="247.08" width="146.49" height="32.92"/>
  <polygon class="cls-3" points="202.22 3.49 227.12 52.46 274.85 52.46 275.26 51.63 234.93 3.49 202.22 3.49"/>
  <polygon class="cls-3" points="48.54 3.49 8.2 51.63 8.63 52.46 56.35 52.46 81.24 3.49 48.54 3.49"/>
  <g class="cls-2">
    <path class="cls-3" d="M117.04,3.49l-7.81,48.26c-.06.29-.92.71-1.03.71h-32.1l-.44-1.25L99.35,3.49h17.7Z"/>
    <path class="cls-3" d="M184.11,3.49l23.69,47.72-.44,1.25h-32.1c-.11,0-.97-.42-1.03-.71l-7.81-48.26h17.7Z"/>
  </g>
  <polygon class="cls-3" points="133.74 3.46 125.68 52.45 157.78 52.45 149.94 3.51 133.74 3.46"/>
  <g class="cls-4">
    <path class="cls-3" d="M81.98,133.63c17.73-2.12,29.53,19.04,18.18,33-12.85,15.81-38,5.47-36.19-14.79.83-9.29,8.85-17.11,18.01-18.2"/>
    <path class="cls-3" d="M195.96,133.63c26.64-2.94,30.6,37.69,4.78,40.58-27.16,3.05-31.43-37.64-4.78-40.58"/>
  </g>
</svg>