<?xml version="1.0" encoding="UTF-8"?>
<svg id="Vrstva_1" data-name="Vrstva 1" xmlns="http://www.w3.org/2000/svg" xmlns:xlink="http://www.w3.org/1999/xlink" viewBox="0 0 283.46 283.46">
  <defs>
    <style>
      .cls-1 {
        fill: none;
      }

      .cls-2 {
        fill: #13a538;
      }

      .cls-3 {
        clip-path: url(#clippath);
      }
    </style>
    <clipPath id="clippath">
      <rect class="cls-1" x="2.05" y="49.04" width="279.37" height="185.38"/>
    </clipPath>
  </defs>
  <g class="cls-3">
    <path class="cls-2" d="M185.78,89.97c-43.72-36.75-110.55-7.08-111.86,50.14-1.32,57.77,64.85,90.63,110.19,54.84,33.11-26.14,33.99-77.8,1.67-104.98M251.57,102.73c9.28,9.77,18.57,20.94,26.03,32.19.95,1.45,3.87,5.46,3.81,6.94-.01.34-.08.55-.17.85-.34,1.16-4.03,6.33-4.99,7.73-25.72,37.64-66.83,74.66-113.26,82.24-42.84,6.99-80.79-7.67-113.27-34.72-18.84-15.68-34.13-34.99-47.61-55.37-.25-1.27.18-1.94.73-2.98,1.59-3.01,4.28-6.59,6.28-9.43,25.88-36.75,66.02-71.74,111.61-79.41,51.45-8.64,96.54,15.84,130.83,51.95"/>
    <path class="cls-2" d="M170.57,110.68c21.96,19.99,16.16,56-10.07,69.14-26.57,13.32-59.44-5.34-61.16-34.95-2.23-38.4,42.59-60.26,71.22-34.19"/>
  </g>
</svg>