<?xml version="1.0" encoding="UTF-8"?>
<svg id="Vrstva_1" data-name="Vrstva 1" xmlns="http://www.w3.org/2000/svg" xmlns:xlink="http://www.w3.org/1999/xlink" viewBox="0 0 283.46 283.46">
  <defs>
    <style>
      .cls-1 {
        fill: none;
      }

      .cls-2 {
        fill: #13a538;
      }

      .cls-3 {
        clip-path: url(#clippath);
      }
    </style>
    <clipPath id="clippath">
      <rect class="cls-1" x="3.07" y="2.89" width="277.33" height="277.69"/>
    </clipPath>
  </defs>
  <g class="cls-3">
    <path class="cls-2" d="M147.37,103.34c-5-4.79-18.31-.77-23.95,1.97-8.82,4.3-19.77,16.11-20.83,26.19-.53,4.96,2.79,9.38,7.98,9.26,7.66-.19,7.55-9.11,11.43-14.18,6.19-8.07,11.57-7.99,20.57-9.54,6.62-1.13,9.57-9.11,4.79-13.7M135.87,68.66c60.96-3.92,100.45,61.51,67.26,113.05-7.7,11.95-17.39,16.58-20.04,32.35-1.1,6.5,1.43,15.14-7.01,17.33l-69.34-.19c-7.66-2.56-5.36-10.83-6.38-17.14-2.61-16.28-12.38-20.58-20.27-32.94-29.64-46.47.48-108.9,55.78-112.47"/>
    <path class="cls-2" d="M174.32,247.58v11.34c0,1.07-1.7,6.05-2.25,7.25-3.54,7.76-11.68,13.43-20.21,14.02-9.18.65-24.2,1.1-31.95-3.98-4.58-3.01-10.77-11.75-10.77-17.28v-11.34h65.18Z"/>
    <path class="cls-2" d="M147.78,49.83c-4.72,4.94-12.41,2.36-14.2-3.87l-.06-36.18c1.43-9.21,15.18-9.17,16.43,0,1.46,10.7-1.01,24.42.04,35.44-.14,1.43-1.23,3.59-2.21,4.61"/>
    <path class="cls-2" d="M50.01,135.51c4.94,4.72,2.36,12.41-3.87,14.2l-36.18.06c-9.21-1.43-9.17-15.18,0-16.43,10.7-1.46,24.42,1.01,35.44-.04,1.43.14,3.59,1.23,4.61,2.21"/>
    <path class="cls-2" d="M233.46,147.6c-4.94-4.72-2.36-12.41,3.87-14.2l36.18-.06c9.21,1.43,9.17,15.18,0,16.43-10.7,1.46-24.42-1.01-35.44.04-1.43-.14-3.59-1.23-4.61-2.21"/>
    <path class="cls-2" d="M48.39,41.41c2.59-.41,4.9.44,6.92,1.97,8.06,6.11,15.68,17.12,23.71,23.73,6.43,8.33-3.44,18.46-12.17,11.34-8.05-6.56-15.29-16.44-23.3-23.32-4.3-4.71-1.25-12.74,4.85-13.72"/>
    <path class="cls-2" d="M232.39,41.42c7.42-1.07,12.23,7.19,7.7,13.48-5.81,8.08-17.64,16.11-24.14,24.12-8.19,6.1-18.18-3.68-11.11-12.35,6.51-7.99,16.31-15.14,23.1-23.1,1.34-.97,2.78-1.91,4.45-2.15"/>
  </g>
</svg>